<svg width="181" height="60" viewBox="0 0 181 60" fill="none" xmlns="http://www.w3.org/2000/svg">
<rect width="181" height="60" rx="8" fill="#0F0F54"/>
<path d="M45.2148 37H47.4023V31.2285L52.373 22.9082H49.9414L46.3477 29.1289H46.2793L42.6855 22.9082H40.2539L45.2148 31.2285V37ZM55.6301 37.2051C57.1926 37.2051 58.2375 36.4922 58.7746 35.457H58.8234V37H60.9426V26.7266H58.8234V32.7227C58.8234 34.3242 57.8664 35.3887 56.382 35.3887C54.9172 35.3887 54.1945 34.5293 54.1945 32.9766V26.7266H52.0852V33.3867C52.0852 35.75 53.3742 37.2051 55.6301 37.2051ZM62.9496 37H65.059V33.2988L65.9379 32.4297L69.4242 37H71.8754L67.4906 31.1602L71.7094 26.7266H69.2289L65.1078 31.1113H65.059V22.9082H62.9496V37ZM72.8082 37H74.9176V22.9082H72.8082V37ZM79.9031 37.1855C81.2605 37.1855 82.452 36.4824 83.0477 35.3789H83.0867V37H85.2059V29.9199C85.2059 27.8594 83.6141 26.5312 81.1043 26.5312C78.575 26.5312 77.0418 27.8887 76.8953 29.6562L76.8855 29.7637H78.8777L78.8973 29.6758C79.073 28.8555 79.825 28.2793 81.0457 28.2793C82.3543 28.2793 83.0867 28.9629 83.0867 30.0957V30.8672L80.2938 31.0332C77.8621 31.1797 76.4754 32.2734 76.4754 34.0605V34.0801C76.4754 35.9258 77.8523 37.1855 79.9031 37.1855ZM78.6043 34.0312V34.0117C78.6043 33.1426 79.3074 32.5859 80.577 32.5078L83.0867 32.3516V33.1523C83.0867 34.4902 81.9637 35.4961 80.4793 35.4961C79.3465 35.4961 78.6043 34.9297 78.6043 34.0312ZM92.5156 37.2051C95.123 37.2051 96.8125 35.1348 96.8125 31.8633V31.8535C96.8125 28.582 95.1133 26.5312 92.5352 26.5312C91.0801 26.5312 89.9082 27.2637 89.293 28.4746H89.2441V22.9082H87.1348V37H89.2441V35.2617H89.293C89.8984 36.4629 91.041 37.2051 92.5156 37.2051ZM91.959 35.3887C90.3574 35.3887 89.2344 34.002 89.2344 31.8633V31.8535C89.2344 29.7246 90.3672 28.3379 91.959 28.3379C93.6191 28.3379 94.6543 29.6855 94.6543 31.8535V31.8633C94.6543 34.0508 93.6191 35.3887 91.959 35.3887ZM106.52 37.2051C109.459 37.2051 111.393 35.1738 111.393 31.8633V31.8438C111.393 28.5527 109.44 26.5312 106.51 26.5312C103.59 26.5312 101.647 28.5625 101.647 31.8438V31.8633C101.647 35.1641 103.571 37.2051 106.52 37.2051ZM106.53 35.4375C104.879 35.4375 103.805 34.1387 103.805 31.8633V31.8438C103.805 29.5977 104.889 28.2988 106.51 28.2988C108.161 28.2988 109.235 29.5977 109.235 31.8438V31.8633C109.235 34.1289 108.18 35.4375 106.53 35.4375ZM112.902 37H115.011V22.9082H112.902V37ZM118.122 25.1445C118.815 25.1445 119.352 24.5977 119.352 23.9336C119.352 23.2598 118.815 22.7129 118.122 22.7129C117.438 22.7129 116.891 23.2598 116.891 23.9336C116.891 24.5977 117.438 25.1445 118.122 25.1445ZM117.067 37H119.177V26.7266H117.067V37ZM125.002 37.2051C127.424 37.2051 129.182 35.916 129.182 34.041V34.0312C129.182 32.5566 128.381 31.7266 126.281 31.2383L124.611 30.8574C123.508 30.5938 123.088 30.1641 123.088 29.5293V29.5195C123.088 28.6992 123.801 28.1621 124.934 28.1621C126.125 28.1621 126.828 28.7871 126.955 29.6855L126.965 29.7539H128.947L128.938 29.6367C128.83 27.8887 127.365 26.5312 124.934 26.5312C122.57 26.5312 120.969 27.791 120.969 29.627V29.6367C120.969 31.1309 121.936 32.0684 123.889 32.5176L125.568 32.8984C126.672 33.1621 127.043 33.543 127.043 34.207V34.2168C127.043 35.0469 126.281 35.5742 125.012 35.5742C123.713 35.5742 123.01 35.0176 122.814 34.0703L122.795 33.9727H120.705L120.715 34.0605C120.93 35.9355 122.434 37.2051 125.002 37.2051ZM130.7 37H132.81V31.0527C132.81 29.4512 133.777 28.3379 135.232 28.3379C136.716 28.3379 137.575 29.3535 137.575 31.0527V37H139.685V30.6523C139.685 28.1719 138.239 26.5312 136.042 26.5312C134.509 26.5312 133.405 27.2246 132.859 28.416H132.81V22.9082H130.7V37Z" fill="white"/>
</svg>
