<svg width="58" height="58" viewBox="0 0 58 58" fill="none" xmlns="http://www.w3.org/2000/svg">
<path d="M29 0.5625C23.3756 0.5625 17.8775 2.23033 13.201 5.35508C8.52446 8.47984 4.87956 12.9212 2.72719 18.1174C0.574822 23.3137 0.0116642 29.0315 1.10893 34.5479C2.2062 40.0642 4.91461 45.1313 8.89166 49.1083C12.8687 53.0854 17.9358 55.7938 23.4521 56.8911C28.9685 57.9883 34.6863 57.4252 39.8826 55.2728C45.0788 53.1205 49.5202 49.4755 52.6449 44.799C55.7697 40.1225 57.4375 34.6244 57.4375 29C57.4288 21.4606 54.4299 14.2325 49.0987 8.90128C43.7676 3.5701 36.5394 0.571214 29 0.5625ZM38.9634 30.8201L25.8384 39.5701C25.509 39.7901 25.1261 39.9165 24.7305 39.9358C24.3349 39.9551 23.9415 39.8665 23.5923 39.6797C23.2431 39.4928 22.9512 39.2145 22.7478 38.8747C22.5444 38.5348 22.4372 38.1461 22.4375 37.75V20.25C22.4372 19.8539 22.5444 19.4652 22.7478 19.1253C22.9512 18.7855 23.2431 18.5072 23.5923 18.3203C23.9415 18.1335 24.3349 18.0449 24.7305 18.0642C25.1261 18.0835 25.509 18.2099 25.8384 18.4299L38.9634 27.1799C39.263 27.3797 39.5087 27.6503 39.6787 27.9678C39.8486 28.2853 39.9375 28.6399 39.9375 29C39.9375 29.3601 39.8486 29.7147 39.6787 30.0322C39.5087 30.3497 39.263 30.6203 38.9634 30.8201Z" fill="white"/>
</svg>
